<svg xmlns="http://www.w3.org/2000/svg" width="800" height="450" viewBox="0 0 800 450" role="img" aria-label="课语通 - 课程问答助手界面">
  <defs>
    <linearGradient id="bg1" x1="0" y1="0" x2="1" y2="1">
      <stop offset="0" stop-color="#10141b"/><stop offset="1" stop-color="#1a2230"/>
    </linearGradient>
    <linearGradient id="ac1" x1="0" y1="0" x2="1" y2="0">
      <stop offset="0" stop-color="#0fb3a7"/><stop offset="1" stop-color="#2ce0c9"/>
    </linearGradient>
  </defs>
  <rect width="800" height="450" fill="url(#bg1)"/>
  <rect x="40" y="40" width="720" height="370" rx="20" fill="#16202b" stroke="#223040" stroke-width="1.5"/>
  <rect x="72" y="72" width="300" height="26" rx="13" fill="#223040"/>
  <rect x="92" y="124" width="420" height="18" rx="9" fill="#2b3947"/>
  <rect x="92" y="154" width="360" height="18" rx="9" fill="#2b3947"/>
  <rect x="92" y="184" width="392" height="18" rx="9" fill="#2b3947"/>
  <rect x="92" y="230" width="240" height="34" rx="17" fill="url(#ac1)" opacity="0.9"/>
  <text x="212" y="253" font-family="Arial,Helvetica,sans-serif" font-size="15" fill="#06201c" text-anchor="middle" font-weight="bold">生成回答</text>
  <rect x="432" y="300" width="260" height="26" rx="13" fill="#0fb3a7" opacity="0.35"/>
  <rect x="452" y="350" width="220" height="30" rx="15" fill="#2b3947"/>
  <circle cx="474" cy="365" r="6" fill="#0fb3a7"/>
  <rect x="492" y="357" width="80" height="8" rx="4" fill="#4a5b6e"/>
</svg>